<?xml version="1.0" ?><svg enable-background="new 0 0 32 32" height="32px" id="svg2" version="1.1" viewBox="0 0 32 32" width="32px" x="0px" xml:space="preserve" xmlns="http://www.w3.org/2000/svg" xmlns:cc="http://creativecommons.org/ns#" xmlns:dc="http://purl.org/dc/elements/1.1/" xmlns:inkscape="http://www.inkscape.org/namespaces/inkscape" xmlns:rdf="http://www.w3.org/1999/02/22-rdf-syntax-ns#" xmlns:sodipodi="http://sodipodi.sourceforge.net/DTD/sodipodi-0.dtd" xmlns:svg="http://www.w3.org/2000/svg" y="0px"><g id="background"><rect fill="none" height="32" width="32" x="1.002" y="1"/></g><g id="adress_x5F_book"><g><path d="M27.002,1v1.999h-2V5h2v28h-24c0,0-2,0-2-2V4.018c0-0.006-0.001-0.012-0.001-0.018C0.966,2.645,1.808,1.686,2.556,1.354    C3.295,0.992,3.918,1.004,4.002,1H27.002 M3.998,5C4,5,4.001,5,4.002,5h19V2.999h-19C4,3.005,3.97,2.997,3.853,3.018    c-0.115,0.019-0.274,0.06-0.403,0.125C3.195,3.314,3.035,3.353,3.002,4c0.015,0.5,0.134,0.609,0.271,0.743    c0.145,0.126,0.402,0.212,0.579,0.239C3.948,4.999,3.985,5,3.998,5 M5.002,31h20V7h-20V31"/></g><g><g><path d="M15.002,19c2.209,0,4-1.791,4-4s-1.791-4-4-4s-4,1.791-4,4S12.793,19,15.002,19z M21.002,21h-12c0,0-2,0-2,2v6h16v-6     C23.002,23,23.002,21,21.002,21z"/></g></g></g></svg>