<?xml version="1.0" encoding="utf-8"?>
<!-- Generator: Adobe Illustrator 15.1.0, SVG Export Plug-In  -->
<!DOCTYPE svg PUBLIC "-//W3C//DTD SVG 1.1//EN" "http://www.w3.org/Graphics/SVG/1.1/DTD/svg11.dtd" [
	<!ENTITY ns_flows "http://ns.adobe.com/Flows/1.0/">
]>
<svg version="1.1"
	 xmlns="http://www.w3.org/2000/svg" xmlns:xlink="http://www.w3.org/1999/xlink" xmlns:a="http://ns.adobe.com/AdobeSVGViewerExtensions/3.0/"
	 x="0px" y="0px" width="27px" height="29px" viewBox="-0.3 -0.5 27 29"
	 overflow="visible" enable-background="new -0.3 -0.5 27 29" xml:space="preserve">
<defs>
</defs>
<path id="book-bookmark_1_" fill="#FFFFFF" d="M9,4H5v21h15V4.5V4h-0.505C18.67,4,18,3.334,18,2.5C18,1.671,18.678,1,19.495,1H20V0
	H2.493C1.116,0,0,1.11,0,2.5V22c0,1.657,1.343,3,2.994,3H4V4H2.493C1.667,4,1,3.329,1,2.5C1,1.666,1.668,1,2.493,1H17.5
	c0,0-0.5,0.737-0.5,1.474S17.5,4,17.5,4H15v12l-3-3l-3,3V4L9,4z M10,4v9.6l2-2l2,2V4H10L10,4z"/>
<polygon fill="#FFED00" points="23.895,27.968 20.073,25.935 16.279,28.017 16.979,23.654 13.881,20.591 18.135,19.929 
	20.012,15.953 21.941,19.904 26.2,20.515 23.14,23.618 "/>
</svg>
